<?xml version="1.0" encoding="UTF-8" standalone="no"?>
<!DOCTYPE svg PUBLIC "-//W3C//DTD SVG 1.1//EN"
 "http://www.w3.org/Graphics/SVG/1.1/DTD/svg11.dtd">
<!-- Generated by graphviz version 8.1.0 (20230707.0739)
 -->
<!-- Pages: 1 -->
<svg width="2063pt" height="593pt"
 viewBox="0.00 0.00 2063.03 593.25" xmlns="http://www.w3.org/2000/svg" xmlns:xlink="http://www.w3.org/1999/xlink">
<g id="graph0" class="graph" transform="scale(1 1) rotate(0) translate(4 589.25)">
<polygon fill="white" stroke="none" points="-4,4 -4,-589.25 2059.03,-589.25 2059.03,4 -4,4"/>
<!-- OFF -->
<g id="node1" class="node">
<title>OFF</title>
<path fill="#e0e8f1" stroke="red" d="M751.4,-580.88C751.4,-580.88 664.15,-580.88 664.15,-580.88 658.15,-580.88 652.15,-574.88 652.15,-568.88 652.15,-568.88 652.15,-533.12 652.15,-533.12 652.15,-527.12 658.15,-521.12 664.15,-521.12 664.15,-521.12 751.4,-521.12 751.4,-521.12 757.4,-521.12 763.4,-527.12 763.4,-533.12 763.4,-533.12 763.4,-568.88 763.4,-568.88 763.4,-574.88 757.4,-580.88 751.4,-580.88"/>
<path fill="none" stroke="red" d="M755.4,-584.88C755.4,-584.88 660.15,-584.88 660.15,-584.88 654.15,-584.88 648.15,-578.88 648.15,-572.88 648.15,-572.88 648.15,-529.12 648.15,-529.12 648.15,-523.12 654.15,-517.12 660.15,-517.12 660.15,-517.12 755.4,-517.12 755.4,-517.12 761.4,-517.12 767.4,-523.12 767.4,-529.12 767.4,-529.12 767.4,-572.88 767.4,-572.88 767.4,-578.88 761.4,-584.88 755.4,-584.88"/>
<text text-anchor="start" x="660.15" y="-563.58" font-family="Times,serif" font-size="14.00">OFF</text>
<text text-anchor="start" x="660.15" y="-546.33" font-family="Times,serif" font-size="14.00">&#45; enter:</text>
<text text-anchor="start" x="660.15" y="-529.08" font-family="Times,serif" font-size="14.00"> &#160;+ reset_fsm</text>
</g>
<!-- GENERATING_VACUUM -->
<g id="node2" class="node">
<title>GENERATING_VACUUM</title>
<path fill="#fbd385" stroke="black" d="M256.53,-464C256.53,-464 89.03,-464 89.03,-464 83.03,-464 77.03,-458 77.03,-452 77.03,-452 77.03,-440 77.03,-440 77.03,-434 83.03,-428 89.03,-428 89.03,-428 256.53,-428 256.53,-428 262.53,-428 268.53,-434 268.53,-440 268.53,-440 268.53,-452 268.53,-452 268.53,-458 262.53,-464 256.53,-464"/>
<text text-anchor="start" x="85.03" y="-441.32" font-family="Times,serif" font-size="14.00">GENERATING_VACUUM</text>
</g>
<!-- OFF&#45;&gt;GENERATING_VACUUM -->
<g id="edge1" class="edge">
<title>OFF&#45;&gt;GENERATING_VACUUM</title>
<path fill="none" stroke="black" d="M647.78,-549.63C499.72,-548.1 126.19,-540.2 88.78,-499.62 77.71,-487.62 86.39,-477.29 101.69,-469.03"/>
<polygon fill="black" stroke="black" points="102.85,-471.88 110.37,-464.42 99.83,-465.56 102.85,-471.88"/>
<text text-anchor="middle" x="243.28" y="-486.32" font-family="Times,serif" font-size="14.00">start_generating_vacuum [is_high_vacuum]</text>
</g>
<!-- GENERATING_VACUUM&#45;&gt;OFF -->
<g id="edge2" class="edge">
<title>GENERATING_VACUUM&#45;&gt;OFF</title>
<path fill="none" stroke="black" d="M268.79,-460.82C308.77,-466.91 355.61,-474.47 397.78,-482.38 480.31,-497.85 574.46,-518.87 637.14,-533.35"/>
<polygon fill="black" stroke="black" points="636.16,-536.95 646.69,-535.79 637.74,-530.13 636.16,-536.95"/>
<text text-anchor="middle" x="635.78" y="-486.32" font-family="Times,serif" font-size="14.00">cancel_generating_vacuum [is_off_vacuum]</text>
</g>
<!-- IDLE -->
<g id="node3" class="node">
<title>IDLE</title>
<path fill="#e0e8f1" stroke="black" d="M868.78,-375C868.78,-375 838.78,-375 838.78,-375 832.78,-375 826.78,-369 826.78,-363 826.78,-363 826.78,-351 826.78,-351 826.78,-345 832.78,-339 838.78,-339 838.78,-339 868.78,-339 868.78,-339 874.78,-339 880.78,-345 880.78,-351 880.78,-351 880.78,-363 880.78,-363 880.78,-369 874.78,-375 868.78,-375"/>
<text text-anchor="start" x="834.78" y="-352.32" font-family="Times,serif" font-size="14.00">IDLE</text>
</g>
<!-- GENERATING_VACUUM&#45;&gt;IDLE -->
<g id="edge3" class="edge">
<title>GENERATING_VACUUM&#45;&gt;IDLE</title>
<path fill="none" stroke="black" d="M268.96,-430.83C343.32,-420.04 448.86,-405.11 541.53,-393.38 640.43,-380.85 757.22,-368.18 815.98,-361.96"/>
<polygon fill="black" stroke="black" points="816.02,-365.37 825.6,-360.84 815.29,-358.41 816.02,-365.37"/>
<text text-anchor="middle" x="762.4" y="-397.32" font-family="Times,serif" font-size="14.00">finish_generating_vacuum [is_vacuum_done &amp; !is_off_vacuum]</text>
</g>
<!-- IDLE&#45;&gt;OFF -->
<g id="edge4" class="edge">
<title>IDLE&#45;&gt;OFF</title>
<path fill="none" stroke="black" d="M881,-358.82C926.1,-361.3 1009.08,-371.19 984.78,-410.62 940.01,-483.27 844.47,-519.39 778.21,-536.37"/>
<polygon fill="black" stroke="black" points="777.7,-533.13 768.84,-538.93 779.38,-539.93 777.7,-533.13"/>
<text text-anchor="middle" x="1150.4" y="-441.32" font-family="Times,serif" font-size="14.00">finish_shutdown [is_off_vacuum &amp; is_brine_empty]</text>
</g>
<!-- STARTING_UP -->
<g id="node4" class="node">
<title>STARTING_UP</title>
<path fill="#fbd385" stroke="black" d="M465.9,-285.88C465.9,-285.88 297.65,-285.88 297.65,-285.88 291.65,-285.88 285.65,-279.88 285.65,-273.88 285.65,-273.88 285.65,-238.12 285.65,-238.12 285.65,-232.12 291.65,-226.12 297.65,-226.12 297.65,-226.12 465.9,-226.12 465.9,-226.12 471.9,-226.12 477.9,-232.12 477.9,-238.12 477.9,-238.12 477.9,-273.88 477.9,-273.88 477.9,-279.88 471.9,-285.88 465.9,-285.88"/>
<text text-anchor="start" x="293.65" y="-268.57" font-family="Times,serif" font-size="14.00">STARTING_UP</text>
<text text-anchor="start" x="293.65" y="-251.32" font-family="Times,serif" font-size="14.00">&#45; enter:</text>
<text text-anchor="start" x="293.65" y="-234.07" font-family="Times,serif" font-size="14.00"> &#160;+ set_brine_non_empty</text>
</g>
<!-- IDLE&#45;&gt;STARTING_UP -->
<g id="edge5" class="edge">
<title>IDLE&#45;&gt;STARTING_UP</title>
<path fill="none" stroke="black" d="M826.36,-350.25C762.03,-336.76 598.57,-302.47 488.81,-279.45"/>
<polygon fill="black" stroke="black" points="489.87,-275.89 479.36,-277.26 488.43,-282.74 489.87,-275.89"/>
<text text-anchor="middle" x="790.4" y="-307.32" font-family="Times,serif" font-size="14.00">start_startup [are_inputs_active]</text>
</g>
<!-- ACTIVE -->
<g id="node5" class="node">
<title>ACTIVE</title>
<path fill="#e0e8f1" stroke="black" d="M427.53,-172.88C427.53,-172.88 314.03,-172.88 314.03,-172.88 308.03,-172.88 302.03,-166.88 302.03,-160.88 302.03,-160.88 302.03,-125.12 302.03,-125.12 302.03,-119.12 308.03,-113.12 314.03,-113.12 314.03,-113.12 427.53,-113.12 427.53,-113.12 433.53,-113.12 439.53,-119.12 439.53,-125.12 439.53,-125.12 439.53,-160.88 439.53,-160.88 439.53,-166.88 433.53,-172.88 427.53,-172.88"/>
<text text-anchor="start" x="310.03" y="-155.57" font-family="Times,serif" font-size="14.00">ACTIVE</text>
<text text-anchor="start" x="310.03" y="-138.32" font-family="Times,serif" font-size="14.00">&#45; exit:</text>
<text text-anchor="start" x="310.03" y="-121.08" font-family="Times,serif" font-size="14.00"> &#160;+ reset_startup</text>
</g>
<!-- STARTING_UP&#45;&gt;ACTIVE -->
<g id="edge6" class="edge">
<title>STARTING_UP&#45;&gt;ACTIVE</title>
<path fill="none" stroke="black" d="M378.89,-225.84C377.62,-213.06 376.12,-197.87 374.75,-184.06"/>
<polygon fill="black" stroke="black" points="378.16,-183.96 373.69,-174.35 371.19,-184.65 378.16,-183.96"/>
<text text-anchor="middle" x="563.78" y="-194.32" font-family="Times,serif" font-size="14.00">finish_startup [are_inputs_active &amp; is_startup_done]</text>
</g>
<!-- SHUTTING_DOWN -->
<g id="node6" class="node">
<title>SHUTTING_DOWN</title>
<path fill="#fbd385" stroke="black" d="M1094.4,-59.88C1094.4,-59.88 959.15,-59.88 959.15,-59.88 953.15,-59.88 947.15,-53.88 947.15,-47.88 947.15,-47.88 947.15,-12.12 947.15,-12.12 947.15,-6.12 953.15,-0.12 959.15,-0.12 959.15,-0.12 1094.4,-0.12 1094.4,-0.12 1100.4,-0.12 1106.4,-6.12 1106.4,-12.12 1106.4,-12.12 1106.4,-47.88 1106.4,-47.88 1106.4,-53.88 1100.4,-59.88 1094.4,-59.88"/>
<text text-anchor="start" x="955.15" y="-42.58" font-family="Times,serif" font-size="14.00">SHUTTING_DOWN</text>
<text text-anchor="start" x="955.15" y="-25.32" font-family="Times,serif" font-size="14.00">&#45; exit:</text>
<text text-anchor="start" x="955.15" y="-8.07" font-family="Times,serif" font-size="14.00"> &#160;+ set_brine_empty</text>
</g>
<!-- ACTIVE&#45;&gt;SHUTTING_DOWN -->
<g id="edge7" class="edge">
<title>ACTIVE&#45;&gt;SHUTTING_DOWN</title>
<path fill="none" stroke="black" d="M439.74,-130.33C558.97,-110.16 803.56,-68.77 936.29,-46.31"/>
<polygon fill="black" stroke="black" points="936.54,-49.65 945.82,-44.53 935.37,-42.75 936.54,-49.65"/>
<text text-anchor="middle" x="866.03" y="-81.33" font-family="Times,serif" font-size="14.00">start_shutdown [!are_inputs_active]</text>
</g>
<!-- SHUTTING_DOWN&#45;&gt;OFF -->
<g id="edge8" class="edge">
<title>SHUTTING_DOWN&#45;&gt;OFF</title>
<path fill="none" stroke="black" d="M1106.81,-36.02C1284.39,-48.24 1695.78,-82.91 1695.78,-142 1695.78,-447 1695.78,-447 1695.78,-447 1695.78,-539.32 1004.61,-549.26 778.46,-550.04"/>
<polygon fill="black" stroke="black" points="778.72,-546.55 768.73,-550.08 778.74,-553.55 778.72,-546.55"/>
<text text-anchor="middle" x="1875.4" y="-307.32" font-family="Times,serif" font-size="14.00">finish_shutdown [is_off_vacuum &amp; is_brine_empty]</text>
</g>
<!-- SHUTTING_DOWN&#45;&gt;IDLE -->
<g id="edge9" class="edge">
<title>SHUTTING_DOWN&#45;&gt;IDLE</title>
<path fill="none" stroke="black" d="M1021.46,-60C1009.95,-115.95 978.15,-240.34 910.78,-320.62 905.15,-327.34 897.9,-333.16 890.48,-338.04"/>
<polygon fill="black" stroke="black" points="888.84,-335.54 882.09,-343.7 892.46,-341.53 888.84,-335.54"/>
<text text-anchor="middle" x="1160.53" y="-194.32" font-family="Times,serif" font-size="14.00">finish_suspend [is_low_vacuum &amp; is_brine_empty]</text>
</g>
</g>
</svg>
