<?xml version="1.0" encoding="UTF-8" standalone="no"?>
<!DOCTYPE svg PUBLIC "-//W3C//DTD SVG 1.1//EN"
 "http://www.w3.org/Graphics/SVG/1.1/DTD/svg11.dtd">
<!-- Generated by graphviz version 8.1.0 (20230707.0739)
 -->
<!-- Pages: 1 -->
<svg width="2950pt" height="143pt"
 viewBox="0.00 0.00 2949.50 143.25" xmlns="http://www.w3.org/2000/svg" xmlns:xlink="http://www.w3.org/1999/xlink">
<g id="graph0" class="graph" transform="scale(1 1) rotate(0) translate(4 139.25)">
<polygon fill="white" stroke="none" points="-4,4 -4,-139.25 2945.5,-139.25 2945.5,4 -4,4"/>
<!-- OFF -->
<g id="node1" class="node">
<title>OFF</title>
<path fill="#e0e8f1" stroke="red" d="M103.25,-91.88C103.25,-91.88 16,-91.88 16,-91.88 10,-91.88 4,-85.88 4,-79.88 4,-79.88 4,-44.12 4,-44.12 4,-38.12 10,-32.12 16,-32.12 16,-32.12 103.25,-32.12 103.25,-32.12 109.25,-32.12 115.25,-38.12 115.25,-44.12 115.25,-44.12 115.25,-79.88 115.25,-79.88 115.25,-85.88 109.25,-91.88 103.25,-91.88"/>
<path fill="none" stroke="red" d="M107.25,-95.88C107.25,-95.88 12,-95.88 12,-95.88 6,-95.88 0,-89.88 0,-83.88 0,-83.88 0,-40.12 0,-40.12 0,-34.12 6,-28.12 12,-28.12 12,-28.12 107.25,-28.12 107.25,-28.12 113.25,-28.12 119.25,-34.12 119.25,-40.12 119.25,-40.12 119.25,-83.88 119.25,-83.88 119.25,-89.88 113.25,-95.88 107.25,-95.88"/>
<text text-anchor="start" x="12" y="-74.58" font-family="Times,serif" font-size="14.00">OFF</text>
<text text-anchor="start" x="12" y="-57.33" font-family="Times,serif" font-size="14.00">&#45; enter:</text>
<text text-anchor="start" x="12" y="-40.08" font-family="Times,serif" font-size="14.00"> &#160;+ reset_fsm</text>
</g>
<!-- GENERATING_VACUUM -->
<g id="node2" class="node">
<title>GENERATING_VACUUM</title>
<path fill="#fbd385" stroke="black" d="M727.62,-117C727.62,-117 560.12,-117 560.12,-117 554.12,-117 548.12,-111 548.12,-105 548.12,-105 548.12,-93 548.12,-93 548.12,-87 554.12,-81 560.12,-81 560.12,-81 727.62,-81 727.62,-81 733.62,-81 739.62,-87 739.62,-93 739.62,-93 739.62,-105 739.62,-105 739.62,-111 733.62,-117 727.62,-117"/>
<text text-anchor="start" x="556.12" y="-94.33" font-family="Times,serif" font-size="14.00">GENERATING_VACUUM</text>
</g>
<!-- OFF&#45;&gt;GENERATING_VACUUM -->
<g id="edge1" class="edge">
<title>OFF&#45;&gt;GENERATING_VACUUM</title>
<path fill="none" stroke="black" d="M119.59,-91.87C125.45,-93.94 131.39,-95.71 137.25,-97 272.85,-126.78 433.88,-120.53 537.17,-111.4"/>
<polygon fill="black" stroke="black" points="537.28,-114.81 546.92,-110.42 536.64,-107.84 537.28,-114.81"/>
<text text-anchor="middle" x="291.75" y="-121.95" font-family="Times,serif" font-size="14.00">start_generating_vacuum [is_high_vacuum]</text>
</g>
<!-- GENERATING_VACUUM&#45;&gt;OFF -->
<g id="edge2" class="edge">
<title>GENERATING_VACUUM&#45;&gt;OFF</title>
<path fill="none" stroke="black" d="M548.02,-86.19C515.78,-82.26 479.49,-78.3 446.25,-75.75 335.89,-67.27 207.34,-64.01 130.06,-62.76"/>
<polygon fill="black" stroke="black" points="130.56,-59.25 120.51,-62.6 130.45,-66.25 130.56,-59.25"/>
<text text-anchor="middle" x="291.75" y="-78.95" font-family="Times,serif" font-size="14.00">cancel_generating_vacuum [is_off_vacuum]</text>
</g>
<!-- IDLE -->
<g id="node3" class="node">
<title>IDLE</title>
<path fill="#e0e8f1" stroke="black" d="M1344.75,-76C1344.75,-76 1314.75,-76 1314.75,-76 1308.75,-76 1302.75,-70 1302.75,-64 1302.75,-64 1302.75,-52 1302.75,-52 1302.75,-46 1308.75,-40 1314.75,-40 1314.75,-40 1344.75,-40 1344.75,-40 1350.75,-40 1356.75,-46 1356.75,-52 1356.75,-52 1356.75,-64 1356.75,-64 1356.75,-70 1350.75,-76 1344.75,-76"/>
<text text-anchor="start" x="1310.75" y="-53.33" font-family="Times,serif" font-size="14.00">IDLE</text>
</g>
<!-- GENERATING_VACUUM&#45;&gt;IDLE -->
<g id="edge3" class="edge">
<title>GENERATING_VACUUM&#45;&gt;IDLE</title>
<path fill="none" stroke="black" d="M739.96,-93.3C893.14,-84.12 1187.82,-66.45 1291.53,-60.23"/>
<polygon fill="black" stroke="black" points="1291.6,-63.67 1301.37,-59.58 1291.18,-56.69 1291.6,-63.67"/>
<text text-anchor="middle" x="1063.12" y="-89.95" font-family="Times,serif" font-size="14.00">finish_generating_vacuum [is_vacuum_done &amp; !is_off_vacuum]</text>
</g>
<!-- IDLE&#45;&gt;OFF -->
<g id="edge4" class="edge">
<title>IDLE&#45;&gt;OFF</title>
<path fill="none" stroke="black" d="M1302.58,-57.68C1197.39,-56.42 795.18,-52.09 464.25,-54.75 318.9,-55.92 282.57,-56.94 137.25,-60 135.02,-60.05 132.74,-60.1 130.45,-60.15"/>
<polygon fill="black" stroke="black" points="130.52,-56.67 120.61,-60.4 130.69,-63.67 130.52,-56.67"/>
<text text-anchor="middle" x="643.88" y="-57.95" font-family="Times,serif" font-size="14.00">finish_shutdown [is_off_vacuum &amp; is_brine_empty]</text>
</g>
<!-- STARTING_UP -->
<g id="node4" class="node">
<title>STARTING_UP</title>
<path fill="#fbd385" stroke="black" d="M1932.25,-125.88C1932.25,-125.88 1764,-125.88 1764,-125.88 1758,-125.88 1752,-119.88 1752,-113.88 1752,-113.88 1752,-78.12 1752,-78.12 1752,-72.12 1758,-66.12 1764,-66.12 1764,-66.12 1932.25,-66.12 1932.25,-66.12 1938.25,-66.12 1944.25,-72.12 1944.25,-78.12 1944.25,-78.12 1944.25,-113.88 1944.25,-113.88 1944.25,-119.88 1938.25,-125.88 1932.25,-125.88"/>
<text text-anchor="start" x="1760" y="-108.58" font-family="Times,serif" font-size="14.00">STARTING_UP</text>
<text text-anchor="start" x="1760" y="-91.33" font-family="Times,serif" font-size="14.00">&#45; enter:</text>
<text text-anchor="start" x="1760" y="-74.08" font-family="Times,serif" font-size="14.00"> &#160;+ set_brine_non_empty</text>
</g>
<!-- IDLE&#45;&gt;STARTING_UP -->
<g id="edge5" class="edge">
<title>IDLE&#45;&gt;STARTING_UP</title>
<path fill="none" stroke="black" d="M1357.07,-59.94C1426.69,-65.06 1618.73,-79.19 1740.71,-88.17"/>
<polygon fill="black" stroke="black" points="1740.32,-91.72 1750.55,-88.97 1740.84,-84.74 1740.32,-91.72"/>
<text text-anchor="middle" x="1554.38" y="-89.95" font-family="Times,serif" font-size="14.00">start_startup [are_inputs_active]</text>
</g>
<!-- ACTIVE -->
<g id="node5" class="node">
<title>ACTIVE</title>
<path fill="#e0e8f1" stroke="black" d="M2477.75,-125.88C2477.75,-125.88 2364.25,-125.88 2364.25,-125.88 2358.25,-125.88 2352.25,-119.88 2352.25,-113.88 2352.25,-113.88 2352.25,-78.12 2352.25,-78.12 2352.25,-72.12 2358.25,-66.12 2364.25,-66.12 2364.25,-66.12 2477.75,-66.12 2477.75,-66.12 2483.75,-66.12 2489.75,-72.12 2489.75,-78.12 2489.75,-78.12 2489.75,-113.88 2489.75,-113.88 2489.75,-119.88 2483.75,-125.88 2477.75,-125.88"/>
<text text-anchor="start" x="2360.25" y="-108.58" font-family="Times,serif" font-size="14.00">ACTIVE</text>
<text text-anchor="start" x="2360.25" y="-91.33" font-family="Times,serif" font-size="14.00">&#45; exit:</text>
<text text-anchor="start" x="2360.25" y="-74.08" font-family="Times,serif" font-size="14.00"> &#160;+ reset_startup</text>
</g>
<!-- STARTING_UP&#45;&gt;ACTIVE -->
<g id="edge6" class="edge">
<title>STARTING_UP&#45;&gt;ACTIVE</title>
<path fill="none" stroke="black" d="M1944.68,-96C2055.96,-96 2237.71,-96 2341.25,-96"/>
<polygon fill="black" stroke="black" points="2340.94,-99.5 2350.94,-96 2340.94,-92.5 2340.94,-99.5"/>
<text text-anchor="middle" x="2148.25" y="-99.95" font-family="Times,serif" font-size="14.00">finish_startup [are_inputs_active &amp; is_startup_done]</text>
</g>
<!-- SHUTTING_DOWN -->
<g id="node6" class="node">
<title>SHUTTING_DOWN</title>
<path fill="#fbd385" stroke="black" d="M2929.5,-67.88C2929.5,-67.88 2794.25,-67.88 2794.25,-67.88 2788.25,-67.88 2782.25,-61.88 2782.25,-55.88 2782.25,-55.88 2782.25,-20.12 2782.25,-20.12 2782.25,-14.12 2788.25,-8.12 2794.25,-8.12 2794.25,-8.12 2929.5,-8.12 2929.5,-8.12 2935.5,-8.12 2941.5,-14.12 2941.5,-20.12 2941.5,-20.12 2941.5,-55.88 2941.5,-55.88 2941.5,-61.88 2935.5,-67.88 2929.5,-67.88"/>
<text text-anchor="start" x="2790.25" y="-50.58" font-family="Times,serif" font-size="14.00">SHUTTING_DOWN</text>
<text text-anchor="start" x="2790.25" y="-33.33" font-family="Times,serif" font-size="14.00">&#45; exit:</text>
<text text-anchor="start" x="2790.25" y="-16.07" font-family="Times,serif" font-size="14.00"> &#160;+ set_brine_empty</text>
</g>
<!-- ACTIVE&#45;&gt;SHUTTING_DOWN -->
<g id="edge7" class="edge">
<title>ACTIVE&#45;&gt;SHUTTING_DOWN</title>
<path fill="none" stroke="black" d="M2490.23,-87.56C2559.33,-78.93 2669.28,-64.98 2764.25,-52 2766.48,-51.7 2768.74,-51.38 2771.02,-51.07"/>
<polygon fill="black" stroke="black" points="2771.37,-54.41 2780.79,-49.56 2770.4,-47.48 2771.37,-54.41"/>
<text text-anchor="middle" x="2636" y="-87.95" font-family="Times,serif" font-size="14.00">start_shutdown [!are_inputs_active]</text>
</g>
<!-- SHUTTING_DOWN&#45;&gt;OFF -->
<g id="edge8" class="edge">
<title>SHUTTING_DOWN&#45;&gt;OFF</title>
<path fill="none" stroke="black" d="M2781.77,-27.01C2694.03,-15.79 2548.19,0 2422,0 642.88,0 642.88,0 642.88,0 456.88,0 239.33,-31.67 130.34,-49.74"/>
<polygon fill="black" stroke="black" points="129.78,-46.45 120.5,-51.55 130.94,-53.36 129.78,-46.45"/>
<text text-anchor="middle" x="1554.38" y="-3.95" font-family="Times,serif" font-size="14.00">finish_shutdown [is_off_vacuum &amp; is_brine_empty]</text>
</g>
<!-- SHUTTING_DOWN&#45;&gt;IDLE -->
<g id="edge9" class="edge">
<title>SHUTTING_DOWN&#45;&gt;IDLE</title>
<path fill="none" stroke="black" d="M2781.93,-38.73C2560.16,-40.85 1912.66,-47.45 1374.75,-57 1372.48,-57.04 1370.15,-57.08 1367.79,-57.13"/>
<polygon fill="black" stroke="black" points="1367.73,-53.65 1357.81,-57.36 1367.88,-60.65 1367.73,-53.65"/>
<text text-anchor="middle" x="2148.25" y="-50.95" font-family="Times,serif" font-size="14.00">finish_suspend [is_low_vacuum &amp; is_brine_empty]</text>
</g>
</g>
</svg>
