<?xml version="1.0" encoding="UTF-8" standalone="no"?>
<!DOCTYPE svg PUBLIC "-//W3C//DTD SVG 1.1//EN"
 "http://www.w3.org/Graphics/SVG/1.1/DTD/svg11.dtd">
<!-- Generated by graphviz version 8.1.0 (20230707.0739)
 -->
<!-- Pages: 1 -->
<svg width="1459pt" height="733pt"
 viewBox="0.00 0.00 1458.75 733.00" xmlns="http://www.w3.org/2000/svg" xmlns:xlink="http://www.w3.org/1999/xlink">
<g id="graph0" class="graph" transform="scale(1 1) rotate(0) translate(4 729)">
<polygon fill="white" stroke="none" points="-4,4 -4,-729 1454.75,-729 1454.75,4 -4,4"/>
<!-- IDLE -->
<g id="node1" class="node">
<title>IDLE</title>
<path fill="darksalmon" stroke="red" d="M119.25,-315.96C119.25,-315.96 16.25,-315.96 16.25,-315.96 10.25,-315.96 4.25,-309.96 4.25,-303.96 4.25,-303.96 4.25,-268.21 4.25,-268.21 4.25,-262.21 10.25,-256.21 16.25,-256.21 16.25,-256.21 119.25,-256.21 119.25,-256.21 125.25,-256.21 131.25,-262.21 131.25,-268.21 131.25,-268.21 131.25,-303.96 131.25,-303.96 131.25,-309.96 125.25,-315.96 119.25,-315.96"/>
<path fill="none" stroke="red" d="M123.25,-319.96C123.25,-319.96 12.25,-319.96 12.25,-319.96 6.25,-319.96 0.25,-313.96 0.25,-307.96 0.25,-307.96 0.25,-264.21 0.25,-264.21 0.25,-258.21 6.25,-252.21 12.25,-252.21 12.25,-252.21 123.25,-252.21 123.25,-252.21 129.25,-252.21 135.25,-258.21 135.25,-264.21 135.25,-264.21 135.25,-307.96 135.25,-307.96 135.25,-313.96 129.25,-319.96 123.25,-319.96"/>
<text text-anchor="start" x="12.25" y="-298.66" font-family="Times,serif" font-size="14.00">IDLE</text>
<text text-anchor="start" x="12.25" y="-281.41" font-family="Times,serif" font-size="14.00">&#45; enter:</text>
<text text-anchor="start" x="12.25" y="-264.16" font-family="Times,serif" font-size="14.00"> &#160;+ stop_pumps</text>
</g>
<!-- RECIRCULATING_TS -->
<g id="node2" class="node">
<title>RECIRCULATING_TS</title>
<path fill="white" stroke="black" d="M807.12,-654.09C807.12,-654.09 664.38,-654.09 664.38,-654.09 658.38,-654.09 652.38,-648.09 652.38,-642.09 652.38,-642.09 652.38,-630.09 652.38,-630.09 652.38,-624.09 658.38,-618.09 664.38,-618.09 664.38,-618.09 807.12,-618.09 807.12,-618.09 813.12,-618.09 819.12,-624.09 819.12,-630.09 819.12,-630.09 819.12,-642.09 819.12,-642.09 819.12,-648.09 813.12,-654.09 807.12,-654.09"/>
<text text-anchor="start" x="660.38" y="-631.41" font-family="Times,serif" font-size="14.00">RECIRCULATING_TS</text>
</g>
<!-- IDLE&#45;&gt;RECIRCULATING_TS -->
<g id="edge1" class="edge">
<title>IDLE&#45;&gt;RECIRCULATING_TS</title>
<path fill="none" stroke="black" d="M72.02,-320.1C78.54,-368.45 97.68,-456.47 152.75,-504.09 291.05,-623.69 515.26,-641.12 641.21,-640.41"/>
<polygon fill="black" stroke="black" points="641,-643.91 650.96,-640.31 640.93,-636.91 641,-643.91"/>
<text text-anchor="middle" x="353.75" y="-641.04" font-family="Times,serif" font-size="14.00">start_recirculating_ts [is_pump_ts_on &amp; !is_pump_sf_on]</text>
</g>
<!-- HEATING_UP_SF -->
<g id="node3" class="node">
<title>HEATING_UP_SF</title>
<path fill="white" stroke="black" d="M793.62,-295.96C793.62,-295.96 677.88,-295.96 677.88,-295.96 671.88,-295.96 665.88,-289.96 665.88,-283.96 665.88,-283.96 665.88,-248.21 665.88,-248.21 665.88,-242.21 671.88,-236.21 677.88,-236.21 677.88,-236.21 793.62,-236.21 793.62,-236.21 799.62,-236.21 805.62,-242.21 805.62,-248.21 805.62,-248.21 805.62,-283.96 805.62,-283.96 805.62,-289.96 799.62,-295.96 793.62,-295.96"/>
<text text-anchor="start" x="673.88" y="-278.66" font-family="Times,serif" font-size="14.00">HEATING_UP_SF</text>
<text text-anchor="start" x="673.88" y="-261.41" font-family="Times,serif" font-size="14.00">&#45; enter:</text>
<text text-anchor="start" x="673.88" y="-244.16" font-family="Times,serif" font-size="14.00"> &#160;+ stop_pump_ts</text>
</g>
<!-- IDLE&#45;&gt;HEATING_UP_SF -->
<g id="edge2" class="edge">
<title>IDLE&#45;&gt;HEATING_UP_SF</title>
<path fill="none" stroke="black" d="M135.66,-284.08C259.02,-280.37 521.81,-272.48 654.52,-268.5"/>
<polygon fill="black" stroke="black" points="654.5,-271.97 664.39,-268.17 654.29,-264.97 654.5,-271.97"/>
<text text-anchor="middle" x="353.75" y="-287.04" font-family="Times,serif" font-size="14.00">start_recirculating_sf [is_pump_sf_on]</text>
</g>
<!-- RECIRCULATING_TS&#45;&gt;IDLE -->
<g id="edge3" class="edge">
<title>RECIRCULATING_TS&#45;&gt;IDLE</title>
<path fill="none" stroke="black" d="M717.12,-617.61C686.53,-586.4 620.56,-522.73 554.75,-482.84 419.8,-401.03 244.75,-339.79 145.79,-308.78"/>
<polygon fill="black" stroke="black" points="147.17,-305.23 136.58,-305.6 145.09,-311.92 147.17,-305.23"/>
<text text-anchor="middle" x="353.75" y="-486.04" font-family="Times,serif" font-size="14.00">stop_recirculating_ts [!is_pump_ts_on]</text>
</g>
<!-- HEATING_UP_SF&#45;&gt;IDLE -->
<g id="edge4" class="edge">
<title>HEATING_UP_SF&#45;&gt;IDLE</title>
<path fill="none" stroke="black" d="M665.61,-258.38C632.17,-255.03 591.42,-251.49 554.75,-249.84 376.26,-241.8 327.72,-213.69 152.75,-249.84 150.41,-250.32 148.06,-250.87 145.7,-251.48"/>
<polygon fill="black" stroke="black" points="144.98,-248.34 136.36,-254.5 146.94,-255.06 144.98,-248.34"/>
<text text-anchor="middle" x="353.75" y="-253.04" font-family="Times,serif" font-size="14.00">stop_recirculating_sf [!is_pump_sf_on]</text>
</g>
<!-- SF_HEATING_TS -->
<g id="node4" class="node">
<title>SF_HEATING_TS</title>
<path fill="white" stroke="black" d="M1439.12,-107.09C1439.12,-107.09 1326.38,-107.09 1326.38,-107.09 1320.38,-107.09 1314.38,-101.09 1314.38,-95.09 1314.38,-95.09 1314.38,-83.09 1314.38,-83.09 1314.38,-77.09 1320.38,-71.09 1326.38,-71.09 1326.38,-71.09 1439.12,-71.09 1439.12,-71.09 1445.12,-71.09 1451.12,-77.09 1451.12,-83.09 1451.12,-83.09 1451.12,-95.09 1451.12,-95.09 1451.12,-101.09 1445.12,-107.09 1439.12,-107.09"/>
<text text-anchor="start" x="1322.38" y="-84.41" font-family="Times,serif" font-size="14.00">SF_HEATING_TS</text>
</g>
<!-- HEATING_UP_SF&#45;&gt;SF_HEATING_TS -->
<g id="edge5" class="edge">
<title>HEATING_UP_SF&#45;&gt;SF_HEATING_TS</title>
<path fill="none" stroke="black" d="M806.08,-247.06C927.45,-213.76 1177.52,-145.13 1304.35,-110.33"/>
<polygon fill="black" stroke="black" points="1305.03,-113.5 1313.75,-107.48 1303.18,-106.75 1305.03,-113.5"/>
<text text-anchor="middle" x="1105.75" y="-217.04" font-family="Times,serif" font-size="14.00">start_sf_heating_ts [is_pump_ts_on &amp; is_pump_sf_on]</text>
</g>
<!-- SF_HEATING_TS&#45;&gt;IDLE -->
<g id="edge6" class="edge">
<title>SF_HEATING_TS&#45;&gt;IDLE</title>
<path fill="none" stroke="black" d="M1347.71,-70.62C1332.34,-63.3 1313.68,-55.76 1295.88,-52.09 1130.36,-17.95 1083.55,-33.07 915.62,-52.09 569.97,-91.23 470.53,-85.59 152.75,-227.09 141.54,-232.08 130.29,-238.65 119.83,-245.59"/>
<polygon fill="black" stroke="black" points="118.11,-243.21 111.85,-251.76 122.08,-248.98 118.11,-243.21"/>
<text text-anchor="middle" x="735.75" y="-96.04" font-family="Times,serif" font-size="14.00">shutdown [!is_pump_sf_on &amp; !is_pump_ts_on]</text>
</g>
<!-- SF_HEATING_TS&#45;&gt;HEATING_UP_SF -->
<g id="edge7" class="edge">
<title>SF_HEATING_TS&#45;&gt;HEATING_UP_SF</title>
<path fill="none" stroke="black" d="M1314.24,-74.5C1220.75,-57.59 1048.37,-38.47 915.62,-92.84 849.28,-120.01 793.83,-184.68 763,-226.86"/>
<polygon fill="black" stroke="black" points="759.6,-224.6 756.62,-234.76 765.29,-228.68 759.6,-224.6"/>
<text text-anchor="middle" x="1105.75" y="-96.04" font-family="Times,serif" font-size="14.00">stop_sf_heating_ts [is_pump_sf_on &amp; !is_pump_ts_on]</text>
</g>
</g>
</svg>
