<?xml version="1.0" encoding="UTF-8" standalone="no"?>
<!DOCTYPE svg PUBLIC "-//W3C//DTD SVG 1.1//EN"
 "http://www.w3.org/Graphics/SVG/1.1/DTD/svg11.dtd">
<!-- Generated by graphviz version 8.1.0 (20230707.0739)
 -->
<!-- Pages: 1 -->
<svg width="1661pt" height="430pt"
 viewBox="0.00 0.00 1661.10 430.50" xmlns="http://www.w3.org/2000/svg" xmlns:xlink="http://www.w3.org/1999/xlink">
<g id="graph0" class="graph" transform="scale(1 1) rotate(0) translate(4 426.5)">
<polygon fill="white" stroke="none" points="-4,4 -4,-426.5 1657.1,-426.5 1657.1,4 -4,4"/>
<!-- IDLE -->
<g id="node1" class="node">
<title>IDLE</title>
<path fill="darksalmon" stroke="red" d="M783.85,-398.88C783.85,-398.88 680.85,-398.88 680.85,-398.88 674.85,-398.88 668.85,-392.88 668.85,-386.88 668.85,-386.88 668.85,-351.12 668.85,-351.12 668.85,-345.12 674.85,-339.12 680.85,-339.12 680.85,-339.12 783.85,-339.12 783.85,-339.12 789.85,-339.12 795.85,-345.12 795.85,-351.12 795.85,-351.12 795.85,-386.88 795.85,-386.88 795.85,-392.88 789.85,-398.88 783.85,-398.88"/>
<path fill="none" stroke="red" d="M787.85,-402.88C787.85,-402.88 676.85,-402.88 676.85,-402.88 670.85,-402.88 664.85,-396.88 664.85,-390.88 664.85,-390.88 664.85,-347.12 664.85,-347.12 664.85,-341.12 670.85,-335.12 676.85,-335.12 676.85,-335.12 787.85,-335.12 787.85,-335.12 793.85,-335.12 799.85,-341.12 799.85,-347.12 799.85,-347.12 799.85,-390.88 799.85,-390.88 799.85,-396.88 793.85,-402.88 787.85,-402.88"/>
<text text-anchor="start" x="676.85" y="-381.57" font-family="Times,serif" font-size="14.00">IDLE</text>
<text text-anchor="start" x="676.85" y="-364.32" font-family="Times,serif" font-size="14.00">&#45; enter:</text>
<text text-anchor="start" x="676.85" y="-347.07" font-family="Times,serif" font-size="14.00"> &#160;+ stop_pumps</text>
</g>
<!-- RECIRCULATING_TS -->
<g id="node2" class="node">
<title>RECIRCULATING_TS</title>
<path fill="white" stroke="black" d="M294.73,-204C294.73,-204 151.98,-204 151.98,-204 145.98,-204 139.98,-198 139.98,-192 139.98,-192 139.98,-180 139.98,-180 139.98,-174 145.98,-168 151.98,-168 151.98,-168 294.73,-168 294.73,-168 300.73,-168 306.73,-174 306.73,-180 306.73,-180 306.73,-192 306.73,-192 306.73,-198 300.73,-204 294.73,-204"/>
<text text-anchor="start" x="147.98" y="-181.32" font-family="Times,serif" font-size="14.00">RECIRCULATING_TS</text>
</g>
<!-- IDLE&#45;&gt;RECIRCULATING_TS -->
<g id="edge1" class="edge">
<title>IDLE&#45;&gt;RECIRCULATING_TS</title>
<path fill="none" stroke="black" d="M664.59,-365.11C493.46,-357.11 54.42,-332.02 11.35,-283.62 -29.99,-237.16 54.82,-211.65 129.15,-198.69"/>
<polygon fill="black" stroke="black" points="129.27,-202.05 138.55,-196.94 128.11,-195.15 129.27,-202.05"/>
<text text-anchor="middle" x="212.35" y="-270.32" font-family="Times,serif" font-size="14.00">start_recirculating_ts [is_pump_ts_on &amp; !is_pump_sf_on]</text>
</g>
<!-- HEATING_UP_SF -->
<g id="node3" class="node">
<title>HEATING_UP_SF</title>
<path fill="white" stroke="black" d="M882.23,-215.88C882.23,-215.88 766.48,-215.88 766.48,-215.88 760.48,-215.88 754.48,-209.88 754.48,-203.88 754.48,-203.88 754.48,-168.12 754.48,-168.12 754.48,-162.12 760.48,-156.12 766.48,-156.12 766.48,-156.12 882.23,-156.12 882.23,-156.12 888.23,-156.12 894.23,-162.12 894.23,-168.12 894.23,-168.12 894.23,-203.88 894.23,-203.88 894.23,-209.88 888.23,-215.88 882.23,-215.88"/>
<text text-anchor="start" x="762.48" y="-198.57" font-family="Times,serif" font-size="14.00">HEATING_UP_SF</text>
<text text-anchor="start" x="762.48" y="-181.32" font-family="Times,serif" font-size="14.00">&#45; enter:</text>
<text text-anchor="start" x="762.48" y="-164.07" font-family="Times,serif" font-size="14.00"> &#160;+ stop_pump_ts</text>
</g>
<!-- IDLE&#45;&gt;HEATING_UP_SF -->
<g id="edge2" class="edge">
<title>IDLE&#45;&gt;HEATING_UP_SF</title>
<path fill="none" stroke="black" d="M726.02,-334.92C723.65,-314.29 723.53,-287.69 733.35,-266.38 741.12,-249.5 754.42,-234.8 768.48,-222.79"/>
<polygon fill="black" stroke="black" points="770.25,-225.05 775.81,-216.03 765.84,-219.61 770.25,-225.05"/>
<text text-anchor="middle" x="868.35" y="-270.32" font-family="Times,serif" font-size="14.00">start_recirculating_sf [is_pump_sf_on]</text>
</g>
<!-- RECIRCULATING_TS&#45;&gt;IDLE -->
<g id="edge3" class="edge">
<title>RECIRCULATING_TS&#45;&gt;IDLE</title>
<path fill="none" stroke="black" d="M266.18,-204.35C304.82,-220.13 363.13,-244.26 413.35,-266.38 430.05,-273.73 433.54,-277.16 450.6,-283.62 518.14,-309.22 597.05,-332.29 654.16,-347.81"/>
<polygon fill="black" stroke="black" points="652.99,-351.39 663.56,-350.62 654.82,-344.64 652.99,-351.39"/>
<text text-anchor="middle" x="588.23" y="-270.32" font-family="Times,serif" font-size="14.00">stop_recirculating_ts [!is_pump_ts_on]</text>
</g>
<!-- HEATING_UP_SF&#45;&gt;IDLE -->
<g id="edge4" class="edge">
<title>HEATING_UP_SF&#45;&gt;IDLE</title>
<path fill="none" stroke="black" d="M894.52,-198.25C958.06,-211.59 1036.95,-237.98 1003.35,-283.62 980.29,-314.96 882.58,-339.74 811.08,-354.13"/>
<polygon fill="black" stroke="black" points="810.42,-350.89 801.29,-356.26 811.78,-357.75 810.42,-350.89"/>
<text text-anchor="middle" x="1146.48" y="-270.32" font-family="Times,serif" font-size="14.00">stop_recirculating_sf [!is_pump_sf_on]</text>
</g>
<!-- SF_HEATING_TS -->
<g id="node4" class="node">
<title>SF_HEATING_TS</title>
<path fill="white" stroke="black" d="M973.73,-46C973.73,-46 860.98,-46 860.98,-46 854.98,-46 848.98,-40 848.98,-34 848.98,-34 848.98,-22 848.98,-22 848.98,-16 854.98,-10 860.98,-10 860.98,-10 973.73,-10 973.73,-10 979.73,-10 985.73,-16 985.73,-22 985.73,-22 985.73,-34 985.73,-34 985.73,-40 979.73,-46 973.73,-46"/>
<text text-anchor="start" x="856.98" y="-23.32" font-family="Times,serif" font-size="14.00">SF_HEATING_TS</text>
</g>
<!-- HEATING_UP_SF&#45;&gt;SF_HEATING_TS -->
<g id="edge5" class="edge">
<title>HEATING_UP_SF&#45;&gt;SF_HEATING_TS</title>
<path fill="none" stroke="black" d="M754.18,-185.14C643.94,-183.02 449.36,-168.4 517.35,-89.38 557.83,-42.33 733.08,-31.47 837.71,-29.25"/>
<polygon fill="black" stroke="black" points="837.61,-32.73 847.55,-29.05 837.48,-25.73 837.61,-32.73"/>
<text text-anchor="middle" x="706.35" y="-93.33" font-family="Times,serif" font-size="14.00">start_sf_heating_ts [is_pump_ts_on &amp; is_pump_sf_on]</text>
</g>
<!-- SF_HEATING_TS&#45;&gt;IDLE -->
<g id="edge6" class="edge">
<title>SF_HEATING_TS&#45;&gt;IDLE</title>
<path fill="none" stroke="black" d="M986,-30.05C1081.92,-33.12 1248.57,-44.92 1286.35,-89.38 1342.25,-155.17 1342.61,-218.14 1286.35,-283.62 1226.01,-353.85 949.12,-366.29 811.07,-368.06"/>
<polygon fill="black" stroke="black" points="811.13,-364.57 801.17,-368.18 811.2,-371.57 811.13,-364.57"/>
<text text-anchor="middle" x="1490.73" y="-181.32" font-family="Times,serif" font-size="14.00">shutdown [!is_pump_sf_on &amp; !is_pump_ts_on]</text>
</g>
<!-- SF_HEATING_TS&#45;&gt;HEATING_UP_SF -->
<g id="edge7" class="edge">
<title>SF_HEATING_TS&#45;&gt;HEATING_UP_SF</title>
<path fill="none" stroke="black" d="M914.81,-46.22C911.87,-62.55 906.01,-87.39 895.35,-106.62 887.1,-121.51 875.52,-135.89 864.09,-148.18"/>
<polygon fill="black" stroke="black" points="862.05,-145.3 857.65,-154.94 867.1,-150.15 862.05,-145.3"/>
<text text-anchor="middle" x="1092.48" y="-93.33" font-family="Times,serif" font-size="14.00">stop_sf_heating_ts [is_pump_sf_on &amp; !is_pump_ts_on]</text>
</g>
</g>
</svg>
